<svg xmlns="http://www.w3.org/2000/svg" width="256" height="256" viewBox="0 0 256 256">
  <defs>
    <linearGradient id="gold" x1="0" y1="0" x2="1" y2="1">
      <stop offset="0" stop-color="#F5D27A"/>
      <stop offset="0.5" stop-color="#C5A059"/>
      <stop offset="1" stop-color="#8C6B2E"/>
    </linearGradient>
    <radialGradient id="cyanGlow" cx="50%" cy="45%" r="55%">
      <stop offset="0" stop-color="#00e6ff" stop-opacity="0.9"/>
      <stop offset="1" stop-color="#00e6ff" stop-opacity="0"/>
    </radialGradient>
  </defs>
  <rect width="256" height="256" rx="128" fill="#0b1221"/>
  <circle cx="128" cy="128" r="118" fill="none" stroke="#C0C4CC" stroke-width="10"/>
  <circle cx="128" cy="90" r="16" fill="url(#gold)" stroke="#1E2230" stroke-width="4"/>
  <g fill="none" stroke="#00e6ff" stroke-width="4" opacity="0.9">
    <path d="M48 112h24m-6-8v16m18-10v20m20-16v22m18-18v24"/>
    <path d="M208 112h-24m6-8v16m-18-10v20m-20-16v22m-18-18v24"/>
  </g>
  <g fill="url(#gold)" stroke="#1E2230" stroke-width="3">
    <path d="M80 140l20-36 20 18 8-40 8 40 20-18 20 36c-16 10-40 16-68 16s-52-6-68-16z"/>
    <path d="M92 168h72c-3 10-22 20-36 20s-33-10-36-20z"/>
  </g>
  <rect x="0" y="0" width="256" height="256" fill="url(#cyanGlow)"/>
  <text x="128" y="218" font-family="Segoe UI, Arial, sans-serif" font-size="26" font-weight="700" text-anchor="middle" fill="url(#gold)" letter-spacing="1.5">
    ROYAL TECH
  </text>
</svg>
